<?xml version="1.0" encoding="utf-8"?>
<svg viewBox="85.791 65.782 317.676 317.475" width="317.676" height="317.475" xmlns="http://www.w3.org/2000/svg">
  <defs>
    <clipPath id="id3">
      <path d="M 309 532 L 332 532 L 332 563.835938 L 309 563.835938 Z M 309 532 " clip-rule="nonzero"/>
    </clipPath>
    <clipPath id="id4">
      <path d="M 479 532 L 501 532 L 501 563.835938 L 479 563.835938 Z M 479 532 " clip-rule="nonzero"/>
    </clipPath>
  </defs>
  <path fill="#ff8000" d="M 370.408 350.475 C 285.423 358.905 203.83 358.905 118.845 350.475 C 109.517 349.55 101.986 342.503 100.158 333.323 C 87.978 272.104 87.978 208.682 100.158 147.471 C 101.986 138.284 109.517 131.237 118.845 130.315 C 203.83 121.885 285.423 121.885 370.408 130.315 C 379.736 131.241 387.267 138.284 389.095 147.471 C 401.279 208.69 401.279 272.108 389.095 333.323 C 387.267 342.507 379.736 349.55 370.408 350.475 Z M 370.408 350.475" fill-opacity="1" fill-rule="nonzero"/>
  <path fill="#000000" d="M 244.63 362.093 C 202.709 362.093 161.392 360.01 118.326 355.741 C 106.67 354.581 97.279 345.991 94.966 334.35 C 82.732 272.885 82.732 207.905 94.966 146.432 C 97.283 134.8 106.67 126.206 118.326 125.046 C 161.392 120.776 202.709 118.698 244.63 118.698 C 286.552 118.698 327.865 120.776 370.935 125.046 C 382.588 126.206 391.978 134.8 394.291 146.432 C 406.525 207.901 406.525 272.882 394.291 334.354 C 391.97 345.991 382.588 354.581 370.935 355.741 C 327.865 360.01 286.552 362.093 244.63 362.093 Z M 244.63 129.28 C 203.056 129.28 162.088 131.343 119.377 135.577 C 112.392 136.268 106.759 141.46 105.361 148.491 C 93.4 208.608 93.4 272.167 105.361 332.28 C 106.763 339.319 112.392 344.514 119.377 345.202 C 162.088 349.444 203.056 351.51 244.63 351.51 C 286.205 351.51 327.173 349.444 369.884 345.214 C 376.865 344.518 382.502 339.327 383.9 332.292 C 395.861 272.178 395.861 208.62 383.9 148.507 C 382.498 141.471 376.865 136.272 369.884 135.585 C 327.173 131.343 286.205 129.28 244.63 129.28 Z M 244.63 129.28" fill-opacity="1" fill-rule="nonzero"/>
  <path fill="#ffffff" d="M 329.377 240.393 C 329.377 221.569 328.541 202.741 326.865 183.081 C 325.556 167.714 313.545 155.358 298.173 153.925 C 248.49 149.284 198.4 149.284 148.716 153.925 C 133.345 155.358 121.334 167.718 120.025 183.081 C 116.673 222.397 116.673 258.385 120.025 297.702 C 121.334 313.069 133.345 325.425 148.716 326.858 C 198.4 331.499 248.49 331.499 298.173 326.858 C 313.545 325.425 325.556 313.061 326.865 297.702 C 327.611 288.921 328.193 280.296 328.607 271.772 L 329.377 240.393 Z M 329.377 240.393" fill-opacity="1" fill-rule="nonzero"/>
  <path fill="#000000" d="M 223.443 335.632 C 198.31 335.632 173.177 334.46 148.224 332.132 C 130.361 330.46 116.283 316.171 114.752 298.159 C 111.388 258.749 111.388 222.038 114.752 182.632 C 116.283 164.62 130.361 150.331 148.224 148.655 C 198.13 143.995 248.755 143.995 298.662 148.655 C 316.525 150.327 330.603 164.62 332.134 182.635 C 333.845 202.624 334.673 221.518 334.673 240.393 L 324.08 240.393 C 324.08 221.823 323.263 203.221 321.584 183.534 C 320.482 170.624 310.431 160.385 297.677 159.194 C 248.412 154.585 198.47 154.585 149.205 159.194 C 136.455 160.385 126.396 170.62 125.295 183.53 C 121.99 222.323 121.99 258.464 125.295 297.257 C 126.396 310.163 136.451 320.401 149.205 321.593 C 198.47 326.202 248.412 326.202 297.677 321.593 C 310.423 320.401 320.482 310.167 321.584 297.253 C 322.326 288.585 322.904 279.936 323.31 271.518 L 333.892 272.034 C 333.482 280.577 332.888 289.358 332.134 298.159 C 330.603 316.175 316.525 330.46 298.662 332.139 C 273.709 334.46 248.576 335.632 223.443 335.632 Z M 223.443 335.632" fill-opacity="1" fill-rule="nonzero"/>
  <path fill="#000000" d="M 334.318 261.733 L 323.736 261.385 C 323.845 257.987 323.931 254.604 323.99 251.225 L 334.584 251.401 C 334.525 254.839 334.435 258.276 334.318 261.733 Z M 334.318 261.733" fill-opacity="1" fill-rule="nonzero"/>
  <path fill="#000000" d="M 165.322 179.237 L 164.384 168.698 C 168.056 168.37 171.732 168.081 175.42 167.819 L 176.166 178.37 C 172.548 178.632 168.935 178.917 165.322 179.237 Z M 165.322 179.237" fill-opacity="1" fill-rule="nonzero"/>
  <path fill="#000000" d="M 144.009 235.471 L 133.416 235.389 C 133.517 222.378 134.13 209.37 135.302 195.632 C 136.181 185.343 142.466 176.171 151.705 171.702 L 156.318 181.233 C 150.435 184.081 146.42 189.944 145.853 196.534 C 144.713 209.995 144.103 222.733 144.009 235.471 Z M 144.009 235.471" fill-opacity="1" fill-rule="nonzero"/>
  <path fill="#000000" d="M 345.267 161.026 L 377.045 161.026 L 377.045 171.608 L 345.267 171.608 L 345.267 161.026 Z M 345.267 161.026" fill-opacity="1" fill-rule="nonzero"/>
  <path fill="#000000" d="M 345.267 187.483 L 377.045 187.483 L 377.045 198.065 L 345.267 198.065 L 345.267 187.483 Z M 345.267 187.483" fill-opacity="1" fill-rule="nonzero"/>
  <path fill="#000000" d="M 345.267 213.936 L 377.045 213.936 L 377.045 224.518 L 345.267 224.518 L 345.267 213.936 Z M 345.267 213.936" fill-opacity="1" fill-rule="nonzero"/>
  <path fill="#000000" d="M 345.267 240.393 L 355.861 240.393 L 355.861 250.975 L 345.267 250.975 L 345.267 240.393 Z M 345.267 240.393" fill-opacity="1" fill-rule="nonzero"/>
  <path fill="#000000" d="M 366.451 240.393 L 377.045 240.393 L 377.045 250.975 L 366.451 250.975 L 366.451 240.393 Z M 366.451 240.393" fill-opacity="1" fill-rule="nonzero"/>
  <path fill="#000000" d="M 345.267 261.557 L 355.861 261.557 L 355.861 272.139 L 345.267 272.139 L 345.267 261.557 Z M 345.267 261.557" fill-opacity="1" fill-rule="nonzero"/>
  <path fill="#000000" d="M 366.451 261.557 L 377.045 261.557 L 377.045 272.139 L 366.451 272.139 L 366.451 261.557 Z M 366.451 261.557" fill-opacity="1" fill-rule="nonzero"/>
  <path fill="#4d4d4d" d="M 371.748 298.596 C 371.748 299.292 371.681 299.979 371.545 300.663 C 371.408 301.343 371.209 302.003 370.943 302.647 C 370.677 303.288 370.349 303.897 369.963 304.475 C 369.576 305.053 369.138 305.589 368.646 306.081 C 368.154 306.569 367.619 307.01 367.041 307.397 C 366.463 307.78 365.853 308.108 365.209 308.374 C 364.568 308.639 363.904 308.839 363.224 308.975 C 362.541 309.112 361.853 309.178 361.154 309.178 C 360.459 309.178 359.771 309.112 359.088 308.975 C 358.408 308.839 357.744 308.639 357.103 308.374 C 356.459 308.108 355.849 307.78 355.271 307.397 C 354.693 307.01 354.158 306.569 353.666 306.081 C 353.173 305.589 352.736 305.053 352.349 304.475 C 351.963 303.897 351.634 303.288 351.369 302.647 C 351.103 302.003 350.9 301.343 350.767 300.663 C 350.63 299.979 350.564 299.292 350.564 298.596 C 350.564 297.901 350.63 297.214 350.767 296.534 C 350.9 295.85 351.103 295.19 351.369 294.546 C 351.634 293.905 351.963 293.296 352.349 292.718 C 352.736 292.139 353.173 291.604 353.666 291.112 C 354.158 290.624 354.693 290.182 355.271 289.8 C 355.849 289.413 356.459 289.085 357.103 288.819 C 357.744 288.553 358.408 288.354 359.088 288.218 C 359.771 288.081 360.459 288.014 361.154 288.014 C 361.853 288.014 362.541 288.081 363.224 288.218 C 363.904 288.354 364.568 288.553 365.209 288.819 C 365.853 289.085 366.463 289.413 367.041 289.8 C 367.619 290.182 368.154 290.624 368.646 291.112 C 369.138 291.604 369.576 292.139 369.963 292.718 C 370.349 293.296 370.677 293.905 370.943 294.546 C 371.209 295.19 371.408 295.85 371.545 296.534 C 371.681 297.214 371.748 297.901 371.748 298.596 Z M 371.748 298.596" fill-opacity="1" fill-rule="nonzero"/>
  <path fill="#000000" d="M 361.154 314.471 C 352.396 314.471 345.267 307.346 345.267 298.596 C 345.267 289.846 352.396 282.721 361.154 282.721 C 369.916 282.721 377.045 289.846 377.045 298.596 C 377.045 307.346 369.916 314.471 361.154 314.471 Z M 361.154 293.307 C 358.232 293.307 355.861 295.675 355.861 298.596 C 355.861 301.518 358.232 303.889 361.154 303.889 C 364.08 303.889 366.451 301.518 366.451 298.596 C 366.451 295.675 364.08 293.307 361.154 293.307 Z M 361.154 293.307" fill-opacity="1" fill-rule="nonzero"/>
  <g clip-path="url(#id3)" transform="matrix(1, 0, 0, 1, -160.635422, -180.579071)">
    <path fill="#000000" d="M 315.214844 563.835938 C 314.421875 563.835938 313.613281 563.65625 312.855469 563.28125 C 310.238281 561.972656 309.179688 558.792969 310.488281 556.179688 L 321.078125 535.015625 C 322.394531 532.398438 325.578125 531.351562 328.1875 532.648438 C 330.804688 533.957031 331.863281 537.136719 330.554688 539.75 L 319.960938 560.914062 C 319.03125 562.765625 317.160156 563.835938 315.214844 563.835938 Z M 315.214844 563.835938 " fill-opacity="1" fill-rule="nonzero"/>
  </g>
  <g clip-path="url(#id4)" transform="matrix(1, 0, 0, 1, -160.635422, -180.579071)">
    <path fill="#000000" d="M 495.3125 563.835938 C 493.367188 563.835938 491.5 562.765625 490.566406 560.910156 L 479.972656 539.746094 C 478.664062 537.128906 479.726562 533.949219 482.339844 532.644531 C 484.957031 531.347656 488.136719 532.394531 489.449219 535.007812 L 500.042969 556.171875 C 501.351562 558.789062 500.292969 561.96875 497.675781 563.273438 C 496.917969 563.65625 496.109375 563.835938 495.3125 563.835938 Z M 495.3125 563.835938 " fill-opacity="1" fill-rule="nonzero"/>
  </g>
  <path fill="#4d4d4d" d="M 191.662 102.823 C 173.623 102.823 157.923 112.839 149.83 127.608 C 177.213 125.538 204.322 124.444 231.4 124.151 C 222.861 111.303 208.259 102.823 191.662 102.823 Z M 191.662 102.823" fill-opacity="1" fill-rule="nonzero"/>
  <path fill="#000000" d="M 140.494 133.624 L 145.185 125.069 C 154.49 108.081 172.302 97.53 191.662 97.53 C 209.443 97.53 225.955 106.389 235.81 121.229 L 241.201 129.339 L 231.459 129.448 C 203.369 129.757 176.802 130.882 150.228 132.889 L 140.494 133.624 Z M 191.662 108.116 C 179.783 108.116 168.627 113.077 160.716 121.534 C 180.189 120.241 199.779 119.417 220.052 119.03 C 212.353 112.073 202.295 108.116 191.662 108.116 Z M 191.662 108.116" fill-opacity="1" fill-rule="nonzero"/>
  <path fill="#000000" d="M 191.662 108.116 C 190.306 108.116 188.951 107.596 187.92 106.565 L 156.138 74.815 C 154.068 72.749 154.068 69.405 156.138 67.335 C 158.209 65.264 161.556 65.264 163.627 67.335 L 191.662 95.343 L 219.697 67.335 C 221.771 65.264 225.119 65.264 227.189 67.335 C 229.259 69.405 229.259 72.749 227.189 74.815 L 195.408 106.565 C 194.377 107.596 193.021 108.116 191.662 108.116 Z M 191.662 108.116" fill-opacity="1" fill-rule="nonzero"/>
</svg>